<svg xmlns="http://www.w3.org/2000/svg" width="462" height="50" fill="none" viewBox="0 0 462 50"><g clip-path="url(#a)"><path fill="#fff" d="M264.688 0v49.375h-6.876V0zm8.75 49.688L282.187.312l14.376 35.626 15-35.626 8.124 49.376h-6.562l-4.062-27.813-12.5 27.813-12.188-27.813-4.687 27.813zm61.249-26.876h2.501c6.25 0 9.375-2.5 9.375-7.812 0-5-3.126-7.813-9.688-7.813h-2.188zm0 6.875v20h-6.874V.313h7.812c3.75 0 6.563.313 8.75.938 1.875.625 3.75 1.563 5.313 3.125 2.5 2.813 4.062 6.25 4.062 10.625 0 4.688-1.25 8.125-4.062 10.938C346.875 28.75 343.125 30 338.437 30zm43.438 2.188-6.25-15.938-6.562 15.938zm2.5 6.563h-18.437l-4.688 11.25h-6.875L371.875.312l20.313 49.376H385c.313 0-4.375-11.25-4.375-11.25M425.937 3.75v8.438c-3.75-3.438-7.812-5.313-11.875-5.313-4.374 0-8.124 1.875-11.249 5.313S398.125 20 398.125 25s1.563 9.063 4.688 12.5c3.125 3.438 6.875 5 11.249 5 2.188 0 4.376-.312 5.938-1.25.938-.312 1.875-.937 2.812-1.562.938-.626 1.875-1.563 3.125-2.5v8.75c-3.75 2.187-7.812 3.75-11.875 3.75-6.25 0-11.562-2.5-15.937-7.188s-6.563-10.625-6.563-17.188c0-5.937 1.875-11.562 5.625-16.25 4.375-5.937 10.313-8.75 17.501-8.75 3.75 0 7.499.938 11.249 3.438m25.313 3.437v42.5h-6.875v-42.5h-10.312V.312h27.812v6.875z"/><path fill="#f16521" d="M126.562 30.313c-.625 1.562-1.249 3.124-2.499 4.374s-2.5 2.188-4.063 2.813q-2.344.938-5.625.938h-2.812V10.625h2.812c1.875 0 3.75.313 5.312.938 1.563.624 2.813 1.562 4.063 2.812s1.875 2.813 2.5 4.375q.938 2.344.938 5.625c.312 2.5-.001 4.375-.626 5.938m11.563-15c-1.25-2.813-2.812-5.625-4.687-7.813s-4.375-4.062-7.188-5.312S120.625 0 117.5 0H100v49.375h17.5c3.125 0 5.938-.625 8.75-2.188 2.813-1.25 5-3.124 7.188-5.312 2.812-3.125 4.687-6.875 5.624-10.937.313-.625.313-1.25.313-2.188.625-4.687.313-9.375-1.25-13.437m35.312-4.376V0H147.5v49.375h25.937V38.438h-14.062V30H172.5V19.062h-13.125v-8.125zm34.063 0V0h-25.938v49.375H207.5V38.438h-14.062V30h13.124V19.062h-13.124v-8.125zm24.375 11.876h-4.062V10.625h4.062c4.375 0 6.562 2.188 6.562 6.25 0 4.063-2.187 5.938-6.562 5.938m15-18.125C244.062 1.874 240.313.311 235 .311h-18.75v49.376h11.875v-16.25H235c5 0 9.062-1.563 11.875-4.376 2.812-2.812 4.062-6.874 4.062-12.187s-1.562-9.375-4.062-12.187"/><path fill="#fff" d="M6.875 42.813V6.874H21.25V0H0v49.687h20.938v-6.874zm63.75 0V6.874H56.25V0H77.5v49.687H56.562v-6.874z"/><path fill="#f16521" d="M32.813 37.812h11.874v11.876H32.814zm0-37.812h11.874v31.875H32.814z"/></g><defs><clipPath id="a"><path fill="#fff" d="M0 0h462v50H0z"/></clipPath></defs></svg>