<svg xmlns="http://www.w3.org/2000/svg" width="56" height="56" fill="none" viewBox="0 0 56 56"><path fill="#1f1f1f" d="M26.203 11.203c.547-.469 1.172-.703 1.797-.703s1.25.234 1.797.703l12.5 12.5c.703.781.937 1.797.547 2.735A2.56 2.56 0 0 1 40.5 28H33v13.75c0 2.11-1.64 3.75-3.75 3.75h-2.5A3.75 3.75 0 0 1 23 41.75V28h-7.5a2.56 2.56 0 0 1-2.344-1.562c-.39-.938-.156-1.954.547-2.735zM40.5 25.5 28 13 15.5 25.5h8.75c.703 0 1.25.547 1.25 1.25v15c0 .703.547 1.25 1.25 1.25h2.5c.703 0 1.25-.547 1.25-1.25v-15c0-.703.547-1.25 1.25-1.25z"/></svg>