<svg xmlns="http://www.w3.org/2000/svg" width="120" height="121" fill="none" viewBox="0 0 120 121"><path fill="#fff" d="M22.5 13.625v7.813l19.727-4.883c7.421-1.953 15.234-.977 22.265 2.343 8.985 4.493 19.531 4.493 28.711 0l1.758-.976c4.102-1.953 8.789.976 8.789 5.469v54.687c0 2.54-1.562 4.883-4.102 5.86l-6.64 2.539c-9.18 3.32-19.14 2.734-27.735-1.563-7.421-3.71-16.015-4.492-24.023-2.539L22.5 87.063v20.312c0 1.758-1.367 3.125-3.125 3.125s-3.125-1.367-3.125-3.125v-93.75c0-1.758 1.367-3.125 3.125-3.125s3.125 1.367 3.125 3.125m0 14.258v52.734l17.383-4.297c9.375-2.343 19.336-1.367 28.125 3.125 7.031 3.516 15.234 3.907 22.656 1.172l6.836-2.539V23.781l-1.562.782c-10.743 5.468-23.633 5.468-34.375 0-5.47-2.735-11.915-3.516-17.774-1.954z"/></svg>