<svg xmlns="http://www.w3.org/2000/svg" width="56" height="56" fill="none" viewBox="0 0 56 56"><path fill="#1f1f1f" d="M21.828 15.263c.39-2.734 2.813-4.766 5.547-4.766 3.437 0 6.016 3.047 5.547 6.407l-1.25 8.828c-.39 2.734-2.813 4.765-5.547 4.765-3.438 0-6.016-2.968-5.547-6.328zm5.547-2.266a3.1 3.1 0 0 0-3.047 2.657l-1.25 8.828c-.234 1.875 1.172 3.515 3.047 3.515 1.562 0 2.812-1.093 3.047-2.656l1.25-8.828c.312-1.875-1.172-3.516-3.047-3.516m-9.219-2.265c.313.312.547.703.469 1.172l-3.125 20c-.156.703-.781 1.171-1.406 1.093-.703-.078-1.172-.703-1.094-1.406l2.812-17.812-3.593 1.64c-.625.235-1.328 0-1.64-.625a1.395 1.395 0 0 1 .702-1.719l5.625-2.5c.39-.156.86-.078 1.25.157m23.125-.235c3.281 0 5.938 2.89 5.547 6.25l-.86 7.578c-.39 2.813-2.734 4.922-5.624 4.922-3.282 0-5.938-2.89-5.547-6.25l.86-7.578c.39-2.812 2.734-4.922 5.624-4.922m-3.125 5.235-.86 7.578c-.234 1.797 1.25 3.437 3.048 3.437 1.64 0 2.968-1.172 3.125-2.734l.86-7.578c.233-1.797-1.25-3.438-3.048-3.438-1.562 0-2.89 1.172-3.125 2.735M48 34.092c.078.702-.39 1.327-1.094 1.405l-37.5 5c-.703.078-1.328-.39-1.406-1.093-.078-.625.39-1.329 1.094-1.407l37.5-5c.703-.078 1.328.39 1.406 1.094m-3.594 8.905-20 2.5c-.703.078-1.328-.39-1.406-1.093-.078-.704.39-1.329 1.094-1.407l20-2.5c.703-.078 1.328.39 1.406 1.094.078.703-.39 1.328-1.094 1.406"/></svg>