<svg xmlns="http://www.w3.org/2000/svg" width="56" height="56" fill="none" viewBox="0 0 56 56"><path fill="#1f1f1f" d="M27.18 8.303a1.295 1.295 0 0 1 1.64 0l18.75 17.5c.547.468.547 1.328.078 1.797-.468.468-1.25.546-1.718.078l-1.641-1.563V42.99c0 2.735-2.266 5-5 5h-22.5c-2.813 0-5-2.265-5-5V26.115l-1.719 1.563c-.468.468-1.25.39-1.718-.078-.47-.547-.47-1.329.078-1.797zm.859 2.656-13.75 12.813V42.99c0 1.407 1.094 2.5 2.5 2.5h5v-8.75c0-2.734 2.188-5 5-5h2.5c2.734 0 5 2.266 5 5v8.75h5c1.328 0 2.5-1.093 2.5-2.5V23.771zm-3.75 34.531h7.5v-8.75c0-1.406-1.172-2.5-2.5-2.5h-2.5a2.47 2.47 0 0 0-2.5 2.5z"/></svg>