<svg xmlns="http://www.w3.org/2000/svg" width="56" height="56" fill="none" viewBox="0 0 56 56"><path fill="#1f1f1f" d="M15.5 13a3.75 3.75 0 0 0-3.594 2.734L8.391 28H23c1.406 0 2.5 1.094 2.5 2.5h5c0-1.406 1.094-2.5 2.5-2.5h14.61l-3.516-12.266A3.75 3.75 0 0 0 40.5 13H38c-.703 0-1.25-.547-1.25-1.25s.547-1.25 1.25-1.25h2.5c2.734 0 5.234 1.875 6.016 4.531l3.75 13.203a6.5 6.5 0 0 1 .234 1.72V38c0 4.14-3.36 7.5-7.5 7.5h-5c-4.14 0-7.5-3.36-7.5-7.5v-5h-5v5c0 4.14-3.36 7.5-7.5 7.5h-5c-4.14 0-7.5-3.36-7.5-7.5v-8.047c0-.547.078-1.172.234-1.719l3.75-13.203c.782-2.656 3.282-4.531 6.016-4.531H18c.703 0 1.25.547 1.25 1.25S18.703 13 18 13zm30.547 17.5H33V38q0 1.407.703 2.578zM48 32.14 35.5 42.376c.781.39 1.563.625 2.5.625h5c2.734 0 5-2.266 5-5zM8 30.5V38q0 1.407.703 2.578L21.047 30.5zM13 43h5c2.734 0 5-2.266 5-5v-5.86L10.5 42.376c.781.39 1.563.625 2.5.625"/></svg>