<svg width="120" height="120" viewBox="0 0 120 120" fill="none" xmlns="http://www.w3.org/2000/svg">
<path d="M44.9609 108.047L43.7891 108.828C42.8125 109.609 41.6406 110 40.4688 110C37.5391 110 35 107.656 35 104.531V91.25H28.75C18.3984 91.25 10 82.8516 10 72.5V28.75C10 18.3984 18.3984 10 28.75 10H91.25C101.602 10 110 18.3984 110 28.75V72.5C110 82.8516 101.602 91.25 91.25 91.25H67.8125C67.4219 91.25 67.2266 91.4453 66.8359 91.6406L44.9609 108.047ZM41.25 91.25V102.969L63.125 86.5625C64.4922 85.5859 66.0547 85 67.8125 85H91.25C98.0859 85 103.75 79.3359 103.75 72.5V28.75C103.75 21.9141 98.0859 16.25 91.25 16.25H28.75C21.9141 16.25 16.25 21.9141 16.25 28.75V72.5C16.25 79.3359 21.9141 85 28.75 85H36.5625C39.1016 85 41.25 87.1484 41.25 89.6875V91.25ZM63.9062 43.2031L62.1484 44.9609C61.5625 45.5469 60.7812 45.9375 60 45.9375C59.2188 45.9375 58.4375 45.5469 57.8516 44.9609L56.0938 43.2031C54.7266 42.0312 52.9688 41.25 51.2109 41.25H50.625C47.1094 41.25 44.375 43.9844 44.375 47.5C44.375 51.6016 47.3047 55.8984 51.2109 59.4141C54.5312 62.5391 58.0469 64.6875 60 65.8594C61.9531 64.6875 65.6641 62.5391 68.7891 59.4141C72.8906 55.8984 75.625 51.6016 75.625 47.5C75.625 43.9844 72.8906 41.25 69.375 41.25H68.7891C67.0312 41.25 65.2734 42.0312 63.9062 43.2031ZM68.7891 35H69.375C76.2109 35 81.875 40.6641 81.875 47.5C81.875 54.3359 77.3828 60.1953 73.0859 64.1016C68.7891 68.0078 63.9062 70.7422 62.1484 71.7188C60.7812 72.5 59.2188 72.5 57.8516 71.7188C56.0938 70.7422 51.2109 68.0078 46.9141 64.1016C42.6172 60.1953 38.125 54.3359 38.125 47.5C38.125 40.6641 43.7891 35 50.625 35H51.2109C54.5312 35 57.6562 36.1719 60 38.5156C62.3438 36.1719 65.4688 35 68.7891 35Z" fill="white"/>
</svg>
