<svg width="120" height="121" viewBox="0 0 120 121" fill="none" xmlns="http://www.w3.org/2000/svg">
<path d="M35 75.5391V88.0391C41.25 90.1875 48.6719 91.3594 56.875 91.75V79.25C48.8672 78.8594 41.4453 77.6875 35 75.5391ZM16.25 64.7969V73C16.25 76.3203 18.9844 80.8125 27.3828 85.1094C27.9688 85.3047 28.3594 85.5 28.75 85.6953V73C23.6719 70.8516 19.375 67.9219 16.25 64.7969ZM60 23C87.5391 23 110 35.6953 110 51.125V73C110 86.8672 87.5391 98 60 98C32.4609 98 10 86.8672 10 73V51.125C10 35.6953 32.4609 23 60 23ZM91.25 73V85.6953C91.6406 85.5 92.2266 85.3047 92.6172 85.1094C101.016 80.8125 103.75 76.3203 103.75 73V64.7969C100.625 67.9219 96.3281 70.8516 91.25 73ZM63.125 79.25V91.75C71.3281 91.3594 78.75 90.1875 85 88.0391V75.5391C78.5547 77.6875 71.1328 78.8594 63.125 79.25ZM16.25 51.125C16.25 63.2344 35.7812 73 60 73C84.2188 73 103.75 63.2344 103.75 51.125C103.75 39.0156 84.2188 29.25 60 29.25C35.7812 29.25 16.25 39.0156 16.25 51.125ZM60 66.75C41.0547 66.75 25.625 59.7188 25.625 51.125C25.625 42.5312 41.0547 35.5 60 35.5C78.9453 35.5 94.375 42.5312 94.375 51.125C94.375 59.7188 78.9453 66.75 60 66.75ZM33.4375 51.125C33.4375 56.3984 45.3516 60.5 60 60.5C74.6484 60.5 86.5625 56.3984 86.5625 51.125C86.5625 46.0469 74.6484 41.75 60 41.75C45.3516 41.75 33.4375 46.0469 33.4375 51.125Z" fill="white"/>
</svg>
