<svg xmlns="http://www.w3.org/2000/svg" width="56" height="56" fill="none" viewBox="0 0 56 56"><path fill="#1f1f1f" d="M19.25 8h17.5c2.734 0 5 2.266 5 5v5h3.75c2.734 0 5 2.266 5 5v20c0 2.734-2.266 5-5 5h-35c-2.734 0-5-2.266-5-5V23c0-2.734 2.266-5 5-5h3.75v-5c0-2.734 2.266-5 5-5M45.5 45.5c1.406 0 2.5-1.094 2.5-2.5V23c0-1.406-1.094-2.5-2.5-2.5h-5c-.703 0-1.25-.547-1.25-1.25V13c0-1.406-1.094-2.5-2.5-2.5h-17.5a2.47 2.47 0 0 0-2.5 2.5v6.25c0 .703-.547 1.25-1.25 1.25h-5A2.47 2.47 0 0 0 8 23v20c0 1.406 1.094 2.5 2.5 2.5H23v-6.25c0-2.031 1.719-3.75 3.75-3.75h2.5A3.75 3.75 0 0 1 33 39.25v6.25zm-15 0v-6.25c0-.703-.547-1.25-1.25-1.25h-2.5c-.703 0-1.25.547-1.25 1.25v6.25zM12.375 33.625c0-.703.547-1.25 1.25-1.25h1.25c.703 0 1.25.547 1.25 1.25v1.25c0 .703-.547 1.25-1.25 1.25h-1.25c-.703 0-1.25-.547-1.25-1.25zm1.25-8.75h1.25c.703 0 1.25.547 1.25 1.25v1.25c0 .703-.547 1.25-1.25 1.25h-1.25c-.703 0-1.25-.547-1.25-1.25v-1.25c0-.703.547-1.25 1.25-1.25m26.25 8.75c0-.703.547-1.25 1.25-1.25h1.25c.703 0 1.25.547 1.25 1.25v1.25c0 .703-.547 1.25-1.25 1.25h-1.25c-.703 0-1.25-.547-1.25-1.25zm1.25-8.75h1.25c.703 0 1.25.547 1.25 1.25v1.25c0 .703-.547 1.25-1.25 1.25h-1.25c-.703 0-1.25-.547-1.25-1.25v-1.25c0-.703.547-1.25 1.25-1.25M26.75 15.5c0-.703.547-1.25 1.25-1.25s1.25.547 1.25 1.25V18h2.5c.703 0 1.25.547 1.25 1.25s-.547 1.25-1.25 1.25h-2.5V23c0 .703-.547 1.25-1.25 1.25s-1.25-.547-1.25-1.25v-2.5h-2.5c-.703 0-1.25-.547-1.25-1.25S23.547 18 24.25 18h2.5z"/></svg>