<svg width="120" height="121" viewBox="0 0 120 121" fill="none" xmlns="http://www.w3.org/2000/svg">
<path d="M103.191 14.7153C104.543 15.1022 105.51 16.0694 105.703 17.2301C107.443 25.7417 108.409 38.7026 102.031 51.0831C98.3585 58.434 92.1734 65.2047 82.5094 71.008V88.4182C82.5094 91.7067 80.7698 94.6084 78.0639 96.3494L61.0551 106.602C56.8029 109.117 51.5843 106.022 51.5843 101.379V81.2607C51.5843 74.4901 45.9791 68.8801 39.2142 68.8801H19.3062C14.4742 68.8801 11.3816 63.6571 13.8943 59.5947L24.1382 42.378C25.8778 39.6698 28.777 37.9288 32.0628 37.9288H49.6514C55.2566 28.2565 62.0215 22.2597 69.3662 18.3907C81.7362 12.007 94.6861 13.1677 103.191 14.7153ZM57.7693 80.6803C57.7693 80.8738 57.7693 81.0672 57.7693 81.2607V101.379L74.7781 91.1264C75.7445 90.5461 76.3243 89.5788 76.3243 88.4182V74.1032C71.1057 76.618 64.9207 78.9393 57.7693 80.6803ZM96.4257 48.3749C101.451 38.5091 101.258 28.2565 99.9047 20.5186C92.1734 19.1645 81.9295 18.9711 72.2654 24.0007C62.0215 29.2237 51.9708 40.4436 45.9791 64.044C50.8111 65.785 54.6768 69.6539 56.6096 74.4901C79.9967 68.6867 91.207 58.434 96.6189 48.3749H96.4257ZM46.3657 44.119H32.0628C31.0964 44.119 29.9367 44.6994 29.5501 45.6666L19.3062 62.6899H39.2142C39.4075 62.6899 39.6008 62.6899 39.7941 62.6899C41.7269 55.5324 43.853 49.5355 46.3657 44.119ZM74.7781 41.0239C74.7781 43.5387 76.9042 45.6666 79.4168 45.6666C81.9295 45.6666 84.0556 43.5387 84.0556 41.0239C84.0556 38.5091 81.9295 36.3812 79.4168 36.3812C76.9042 36.3812 74.7781 38.5091 74.7781 41.0239ZM79.4168 51.8569C73.4251 51.8569 68.5931 47.0207 68.5931 41.0239C68.5931 35.0271 73.4251 30.1909 79.4168 30.1909C85.4086 30.1909 90.2406 35.0271 90.2406 41.0239C90.2406 47.0207 85.4086 51.8569 79.4168 51.8569Z" fill="white"/>
</svg>
