<svg xmlns="http://www.w3.org/2000/svg" width="120" height="121" fill="none" viewBox="0 0 120 121"><path fill="#fff" d="M41.492 16.845C42.664 7.473 49.926.51 58.126.51c10.308 0 18.039 10.443 16.633 21.957l-3.748 30.258C69.84 62.097 62.577 69.06 54.377 69.06c-10.308 0-18.039-10.176-16.633-21.69zm16.634-7.766c-4.451 0-8.434 3.75-9.137 9.104l-3.748 30.258c-.703 6.427 3.514 12.05 9.136 12.05 4.686 0 8.434-3.749 9.137-9.104l3.749-30.258c.937-6.426-3.515-12.05-9.137-12.05M30.48 1.314c.937 1.071 1.64 2.41 1.406 4.017l-9.371 68.548c-.469 2.41-2.343 4.017-4.217 3.749-2.108-.268-3.514-2.41-3.28-4.82l8.434-61.05-10.777 5.622c-1.874.803-3.982 0-4.92-2.142-.702-2.41.235-4.82 2.109-5.89L26.733.777c1.171-.535 2.577-.267 3.748.536M99.827.511c9.839 0 17.805 9.907 16.633 21.421l-2.577 25.974c-1.171 9.64-8.199 16.87-16.867 16.87-9.84 0-17.805-9.908-16.634-21.422l2.577-25.974C84.13 7.74 91.159.51 99.827.51m-9.371 17.94-2.577 25.974c-.703 6.159 3.748 11.782 9.136 11.782 4.92 0 8.903-4.017 9.372-9.372l2.577-25.974c.702-6.158-3.749-11.782-9.137-11.782-4.686 0-8.668 4.017-9.371 9.372m29.519 62.926c.234 2.41-1.172 4.552-3.28 4.82L4.242 103.334c-2.108.268-3.982-1.339-4.217-3.749-.234-2.142 1.172-4.552 3.28-4.82l112.453-17.137c2.108-.268 3.982 1.339 4.217 3.749m-10.777 30.525-59.975 8.569c-2.108.268-3.982-1.339-4.217-3.749s1.172-4.552 3.28-4.82l59.975-8.568c2.108-.268 3.982 1.339 4.217 3.749.234 2.409-1.172 4.552-3.28 4.819"/></svg>