<svg xmlns="http://www.w3.org/2000/svg" width="120" height="121" fill="none" viewBox="0 0 120 121"><path fill="#fff" d="M55.508 18.508c1.367-1.172 2.93-1.758 4.492-1.758 1.563 0 3.125.586 4.492 1.758l31.25 31.25c1.758 1.953 2.344 4.492 1.367 6.836A6.4 6.4 0 0 1 91.25 60.5H72.5v34.375c0 5.273-4.102 9.375-9.375 9.375h-6.25c-5.078 0-9.375-4.102-9.375-9.375V60.5H28.75a6.4 6.4 0 0 1-5.86-3.906c-.976-2.344-.39-4.883 1.368-6.836zM91.25 54.25 60 23 28.75 54.25h21.875c1.758 0 3.125 1.367 3.125 3.125v37.5c0 1.758 1.367 3.125 3.125 3.125h6.25c1.758 0 3.125-1.367 3.125-3.125v-37.5c0-1.758 1.367-3.125 3.125-3.125z"/></svg>