<svg width="120" height="120" viewBox="0 0 120 120" fill="none" xmlns="http://www.w3.org/2000/svg">
<path d="M59.9912 65C61.924 65.0001 63.4911 66.5672 63.4912 68.5C63.4911 70.4329 61.9241 71.9999 59.9912 72C58.0585 71.9997 56.4913 70.4328 56.4912 68.5C56.4913 66.5673 58.0585 65.0003 59.9912 65Z" fill="white"/>
<path d="M48.2109 64.4062C49.1774 62.7323 51.3172 62.1586 52.9912 63.125C54.6651 64.0916 55.2389 66.2323 54.2725 67.9062C53.3059 69.5798 51.165 70.1527 49.4912 69.1865C47.8176 68.22 47.2447 66.0801 48.2109 64.4062Z" fill="white"/>
<path d="M66.9922 63.124C68.666 62.1582 70.806 62.7318 71.7725 64.4053C72.7388 66.0791 72.1657 68.2199 70.4922 69.1865C68.8182 70.153 66.6775 69.5792 65.7109 67.9053C64.7445 66.2313 65.3182 64.0905 66.9922 63.124Z" fill="white"/>
<path d="M43.0859 56.7197C44.7599 55.7533 46.9006 56.3262 47.8672 58C48.8335 59.674 48.2599 61.8148 46.5859 62.7812C44.912 63.7476 42.7712 63.1738 41.8047 61.5C40.8386 59.8262 41.4123 57.6862 43.0859 56.7197Z" fill="white"/>
<path d="M72.1162 58C73.0828 56.3262 75.2235 55.7523 76.8975 56.7188C78.5712 57.6853 79.144 59.8261 78.1777 61.5C77.2113 63.1737 75.0713 63.7473 73.3975 62.7812C71.7234 61.8148 71.1497 59.674 72.1162 58Z" fill="white"/>
<path d="M42.4912 47.5C44.4241 47.5 45.991 49.0672 45.9912 51C45.9911 52.9329 44.4241 54.5 42.4912 54.5C40.5584 54.4999 38.9913 52.9328 38.9912 51C38.9914 49.0672 40.5584 47.5001 42.4912 47.5Z" fill="white"/>
<path d="M77.4912 47.5C79.4241 47.5001 80.9911 49.0672 80.9912 51C80.9911 52.9329 79.4241 54.4999 77.4912 54.5C75.5584 54.4998 73.9913 52.9328 73.9912 51C73.9913 49.0672 75.5585 47.5002 77.4912 47.5Z" fill="white"/>
<path d="M41.8047 40.5C42.7712 38.8262 44.912 38.2524 46.5859 39.2188C48.2598 40.1852 48.8334 42.326 47.8672 44C46.9006 45.6738 44.7599 46.2477 43.0859 45.2812C41.4121 44.3148 40.8384 42.174 41.8047 40.5Z" fill="white"/>
<path d="M73.3965 39.2188C75.0704 38.2524 77.2112 38.8262 78.1777 40.5C79.1442 42.174 78.5704 44.3147 76.8965 45.2812C75.2226 46.2473 73.0827 45.6737 72.1162 44C71.1499 42.3261 71.7228 40.1853 73.3965 39.2188Z" fill="white"/>
<path d="M49.4912 32.8135C51.1652 31.8471 53.3059 32.4208 54.2725 34.0947C55.2389 35.7687 54.6652 37.9095 52.9912 38.876C51.3172 39.8423 49.1764 39.2687 48.21 37.5947C47.2436 35.9208 47.8174 33.78 49.4912 32.8135Z" fill="white"/>
<path d="M65.71 34.0947C66.6764 32.4209 68.8173 31.8472 70.4912 32.8135C72.1652 33.78 72.7389 35.9207 71.7725 37.5947C70.8059 39.2686 68.6652 39.8423 66.9912 38.876C65.3175 37.9095 64.7438 35.7686 65.71 34.0947Z" fill="white"/>
<path d="M59.9912 30C61.9242 30 63.4911 31.5671 63.4912 33.5C63.4912 35.433 61.9242 37 59.9912 37C58.0583 36.9999 56.4912 35.4329 56.4912 33.5C56.4913 31.5671 58.0584 30.0001 59.9912 30Z" fill="white"/>
<path fill-rule="evenodd" clip-rule="evenodd" d="M19.375 10C21.1328 10 22.5 11.3672 22.5 13.125V20.9375L42.2266 16.0547C49.6484 14.1016 57.4609 15.0781 64.4922 18.3984C73.4766 22.8906 84.0234 22.8906 93.2031 18.3984L94.9609 17.4219C99.0625 15.4688 103.75 18.3984 103.75 22.8906V77.5781C103.75 80.1172 102.188 82.4609 99.6484 83.4375L93.0078 85.9766C83.8281 89.2969 73.8672 88.7109 65.2734 84.4141C57.8516 80.7031 49.2578 79.9219 41.25 81.875L22.5 86.5625V106.875C22.5 108.633 21.1328 110 19.375 110C17.6172 110 16.25 108.633 16.25 106.875V13.125C16.25 11.3672 17.6172 10 19.375 10ZM61.5625 24.0625C56.0938 21.3281 49.6484 20.5469 43.7891 22.1094L22.5 27.3828V80.1172L39.8828 75.8203C49.2578 73.4766 59.2188 74.4531 68.0078 78.9453C75.0391 82.4609 83.2422 82.8516 90.6641 80.1172L97.5 77.5781V23.2812L95.9375 24.0625C85.1953 29.5312 72.3047 29.5312 61.5625 24.0625Z" fill="white"/>
</svg>
