<svg xmlns="http://www.w3.org/2000/svg" width="56" height="56" fill="none" viewBox="0 0 56 56"><path fill="#1f1f1f" d="M32.844 40.813c1.484-2.97 2.5-7.11 2.656-11.563h-15c.156 4.453 1.25 8.594 2.734 11.563C24.954 44.328 26.828 45.5 28 45.5c1.25 0 3.047-1.172 4.844-4.687M35.5 26.75c-.156-4.453-1.172-8.516-2.656-11.562C31.047 11.672 29.25 10.5 28 10.5c-1.172 0-3.047 1.172-4.766 4.688-1.484 3.046-2.578 7.109-2.734 11.562zm2.5 2.5c-.234 6.172-2.031 11.953-4.61 15.39 6.641-2.109 11.563-8.124 12.032-15.39zm7.422-2.5c-.469-7.187-5.39-13.203-12.031-15.39 2.578 3.437 4.375 9.218 4.609 15.39zM18 26.75c.234-6.172 2.031-11.953 4.61-15.39-6.641 2.187-11.563 8.203-12.032 15.39zm-7.422 2.5c.469 7.266 5.39 13.281 12.031 15.39-2.578-3.437-4.375-9.218-4.609-15.39zM28 48C16.984 48 8 39.016 8 28S16.984 8 28 8s20 8.984 20 20-8.984 20-20 20"/></svg>