<svg width="120" height="120" viewBox="0 0 120 120" fill="none" xmlns="http://www.w3.org/2000/svg">
<path d="M55.3562 69.375C74.3015 69.375 89.7312 84.8047 89.7312 103.75V106.875C89.7312 108.633 88.1687 110 86.6062 110C84.8484 110 83.4812 108.633 83.4812 106.875V103.75C83.4812 88.3203 70.7859 75.625 55.3562 75.625H36.6062C20.9812 75.625 8.4812 88.3203 8.4812 103.75V106.875C8.4812 108.633 6.9187 110 5.3562 110C3.59839 110 2.2312 108.633 2.2312 106.875V103.75C2.2312 84.8047 17.4656 69.375 36.6062 69.375H55.3562ZM112.192 30.7031C113.169 29.3359 115.122 29.1406 116.489 30.1172C117.856 31.0938 118.247 33.0469 117.075 34.4141L96.5671 62.7344C95.9812 63.5156 95.2 63.9062 94.2234 64.1016C93.2468 64.1016 92.4656 63.7109 91.6843 63.125L81.1375 52.1875C79.9656 50.8203 79.9656 48.8672 81.1375 47.6953C82.5046 46.5234 84.4578 46.5234 85.6296 47.6953L93.6375 56.0938L112.192 30.7031ZM45.9812 60C32.114 60 20.9812 48.8672 20.9812 35C20.9812 21.1328 32.114 10 45.9812 10C59.6531 10 70.9812 21.1328 70.9812 35C70.9812 48.8672 59.6531 60 45.9812 60ZM45.9812 16.25C35.4343 16.25 27.2312 24.6484 27.2312 35C27.2312 45.3516 35.4343 53.75 45.9812 53.75C56.3328 53.75 64.7312 45.3516 64.7312 35C64.7312 24.6484 56.3328 16.25 45.9812 16.25Z" fill="white"/>
</svg>
