<svg xmlns="http://www.w3.org/2000/svg" width="120" height="121" fill="none" viewBox="0 0 120 121"><path fill="#fff" d="M44.35 15.188c0-1.758 1.368-3.126 3.126-3.126h25c1.757 0 3.125 1.368 3.125 3.126s-1.368 3.124-3.125 3.124H63.1v9.571c10.351.781 19.726 5.469 26.562 12.695l5.664-5.664c1.172-1.172 3.125-1.172 4.297 0 1.367 1.172 1.367 3.125 0 4.297l-6.055 6.25c4.492 6.445 7.032 14.453 7.032 22.852 0 22.46-18.165 40.625-40.625 40.625S19.35 90.773 19.35 68.313c0-21.29 16.601-38.868 37.5-40.43v-9.57h-9.375c-1.758 0-3.125-1.368-3.125-3.125M25.6 68.313c0 18.945 15.43 34.375 34.376 34.375S94.35 87.258 94.35 68.313c0-18.946-15.43-34.375-34.375-34.375-18.946 0-34.375 15.43-34.375 34.375m34.376-23.438c1.757 0 3.125 1.367 3.125 3.125v20.313c0 1.757-1.368 3.124-3.125 3.124-1.758 0-3.125-1.367-3.125-3.124V48c0-1.758 1.367-3.125 3.125-3.125"/></svg>