<svg xmlns="http://www.w3.org/2000/svg" width="50" height="47" fill="none" viewBox="0 0 50 47"><path fill="#d02327" d="M37 0a1 1 0 0 1 1 1v8.09a20.9 20.9 0 0 1 6.425 8.684C47.522 17.924 50 21.38 50 25.62c0 4.318-2.57 7.82-5.746 7.849C41.102 40.993 33.669 46.28 25 46.28S8.897 40.993 5.745 33.468C2.57 33.438 0 29.937 0 25.619c0-4.24 2.477-7.694 5.574-7.845C8.623 10.028 16.171 4.544 25 4.544c2.456 0 4.812.426 7 1.205V3a1 1 0 1 1 2 0v3.583q1.033.495 2 1.097V1a1 1 0 0 1 1-1"/><path fill="#fff" d="M33.473 16.892a2.273 2.273 0 0 1 3.61 2.762L25.263 35.11l-.01.01-.002.004-.037.043a2 2 0 0 1-.113.13l-.05.05q-.055.053-.112.105-.051.043-.107.084l-.066.05q-.054.037-.11.07-.04.028-.082.052l-.065.034q-.163.085-.336.143-.05.016-.103.03l-.11.029-.053.01a2.3 2.3 0 0 1-.384.046h-.03a2.26 2.26 0 0 1-1.417-.465l-.018-.015-8.18-6.361a2.273 2.273 0 1 1 2.79-3.588l6.375 4.956z"/></svg>