<svg xmlns="http://www.w3.org/2000/svg" width="50" height="47" fill="none" viewBox="0 0 50 47"><path fill="#d02327" d="M37 0a1 1 0 0 1 1 1v8.09a20.9 20.9 0 0 1 6.425 8.684C47.522 17.924 50 21.38 50 25.62c0 4.318-2.57 7.82-5.746 7.849C41.102 40.993 33.669 46.28 25 46.28S8.897 40.993 5.745 33.468C2.57 33.438 0 29.937 0 25.619c0-4.24 2.477-7.694 5.574-7.845C8.623 10.028 16.171 4.544 25 4.544c2.456 0 4.812.426 7 1.205V3a1 1 0 1 1 2 0v3.583q1.033.495 2 1.097V1a1 1 0 0 1 1-1"/><path fill="#fff" d="M15.748 15.717a2.5 2.5 0 0 1 3.535.03l6.217 6.328 6.03-5.925a2.5 2.5 0 0 1 3.505 3.567l-6.03 5.924 5.726 5.829a2.5 2.5 0 0 1-3.566 3.504l-5.727-5.829-6.124 6.019a2.5 2.5 0 0 1-3.505-3.567l6.124-6.018-6.216-6.327a2.5 2.5 0 0 1 .03-3.535"/></svg>