<svg xmlns="http://www.w3.org/2000/svg" width="214" height="42" fill="none" viewBox="0 0 214 42"><path fill="#fff" d="M1.95 19.38v-4.24h21.11v-3.58H4.79c-1 0-1.97-.4-2.68-1.11A3.8 3.8 0 0 1 1 7.77V4C1 1.91 2.69.22 4.78.22h21.59v4.24H5.74v2.86h18.25c1.01 0 1.97.4 2.68 1.11s1.11 1.67 1.11 2.68v4.49c0 1-.4 1.97-1.11 2.68s-1.67 1.11-2.68 1.11H1.94zm55 .02s-.09-.03-.11-.08l-4.4-12.27-4.4 12.27c-.01.05-.05.08-.11.08h-7.54c-.05 0-.09-.03-.12-.08L33.42.16s-.01-.08.01-.11c.01-.03.05-.05.09-.05h4.73c.05 0 .11.04.12.08l5.41 14.84h.75L49.94.08s.05-.08.11-.08h4.77c.05 0 .09.04.12.08l5.41 14.84h.73L66.49.08s.07-.08.12-.08h4.73s.08.03.11.05c.01.03.03.07.01.11L64.6 19.32c-.01.05-.07.08-.11.08h-7.56zM78.21.24h4.74V19.4h-4.74zm14.45 19.14v-4.24h21.11v-3.58H95.5c-1 0-1.97-.4-2.68-1.11a3.8 3.8 0 0 1-1.11-2.68V4c0-2.09 1.69-3.78 3.78-3.78h21.59v4.24H96.45v2.86h18.25c1.01 0 1.97.4 2.68 1.11s1.11 1.67 1.11 2.68v4.49c0 1-.4 1.97-1.11 2.68s-1.67 1.11-2.68 1.11H92.65zm34.31 0v-4.24h21.11v-3.58h-18.27c-1 0-1.97-.4-2.68-1.11a3.8 3.8 0 0 1-1.11-2.68V4c0-2.09 1.69-3.78 3.78-3.78h21.59v4.24h-20.63v2.86h18.25c1.01 0 1.97.4 2.68 1.11s1.11 1.67 1.11 2.68v4.49c0 1-.4 1.97-1.11 2.68s-1.67 1.11-2.68 1.11h-22.05zm65.88.02v-5.41c0-.2-.08-.39-.23-.53a.8.8 0 0 0-.53-.21h-13.67c-.2 0-.39.08-.53.21-.13.15-.21.33-.21.53v5.41h-4.74V4.02c0-1 .4-1.96 1.11-2.68.71-.71 1.68-1.11 2.68-1.11h17.08c1 0 1.97.4 2.68 1.11.71.72 1.11 1.68 1.11 2.68V19.4zm0-10.39V4.48h-15.18v4.53zM208.28.24h4.74V19.4h-4.74zM193.212 41V24.2h6.552q2.208 0 3.768.696t2.4 2.016.84 3.144-.84 3.144q-.84 1.296-2.4 1.992t-3.768.696h-5.232l1.08-1.104V41zm11.232 0-4.272-6.096h2.568L207.06 41zm-8.832-5.976-1.08-1.176h5.16q2.304 0 3.48-.984 1.2-1.008 1.2-2.808t-1.2-2.784q-1.176-.984-3.48-.984h-5.16l1.08-1.2zm-20.854-3.576h8.64v2.04h-8.64zm.216 7.464h9.792V41h-12.192V24.2h11.856v2.088h-9.456zM157.264 41V26.288h-5.76V24.2H165.4v2.088h-5.76V41zm-27.373 0V24.2h1.968L142.971 38h-1.032V24.2h2.4V41h-1.968l-11.112-13.8h1.032V41zm-18.454-9.552h8.64v2.04h-8.64zm.216 7.464h9.792V41h-12.192V24.2h11.856v2.088h-9.456zm-16.792 2.28q-1.92 0-3.552-.624a8.7 8.7 0 0 1-2.808-1.8 8.7 8.7 0 0 1-1.848-2.736q-.672-1.56-.672-3.432t.672-3.432a8.2 8.2 0 0 1 1.872-2.712 8.2 8.2 0 0 1 2.808-1.8q1.632-.648 3.552-.648 1.944 0 3.576.672a7.2 7.2 0 0 1 2.808 1.944l-1.56 1.512a6.1 6.1 0 0 0-2.16-1.488 6.6 6.6 0 0 0-2.568-.504q-1.416 0-2.64.48a6.3 6.3 0 0 0-2.088 1.344 6.2 6.2 0 0 0-1.392 2.064q-.48 1.176-.48 2.568t.48 2.592q.504 1.176 1.392 2.04a6.3 6.3 0 0 0 2.088 1.344q1.224.48 2.64.48a6.9 6.9 0 0 0 2.568-.48q1.2-.504 2.16-1.536l1.56 1.512a7.45 7.45 0 0 1-2.808 1.968q-1.632.672-3.6.672M68.844 41V24.2h2.4v14.712h9.096V41zm-18.81 0V24.2h2.4v14.712h9.096V41zm-24.682 0 7.608-16.8h2.376L42.968 41h-2.52l-6.792-15.456h.96L27.824 41zm3.24-4.2.648-1.92h9.456l.696 1.92zM13.927 24.008q1.944 0 3.576.672a7.2 7.2 0 0 1 2.808 1.944l-1.561 1.512a6.1 6.1 0 0 0-2.16-1.488 6.6 6.6 0 0 0-2.567-.504 7.2 7.2 0 0 0-2.64.48q-1.2.48-2.088 1.344a6.2 6.2 0 0 0-1.393 2.064q-.48 1.176-.48 2.568t.48 2.592q.504 1.175 1.393 2.04a6.3 6.3 0 0 0 2.088 1.344q1.215.476 2.618.479L14 39a3 3 0 1 1 .904 2.145q-.489.046-1.002.047-1.92 0-3.551-.624a8.7 8.7 0 0 1-2.809-1.8 8.7 8.7 0 0 1-1.848-2.736L5.682 36H5a2 2 0 0 1-2-2v-3a2 2 0 0 1 2-2h.771a8.2 8.2 0 0 1 1.795-2.544 8.2 8.2 0 0 1 2.808-1.8q1.632-.647 3.553-.648"/></svg>